<?xml version="1.0" encoding="utf-8"?>
<!-- Generator: Adobe Illustrator 25.2.1, SVG Export Plug-In . SVG Version: 6.00 Build 0)  -->
<svg version="1.1" id="Layer_1" xmlns="http://www.w3.org/2000/svg" xmlns:xlink="http://www.w3.org/1999/xlink" x="0px" y="0px"
	 viewBox="0 0 900 125" style="enable-background:new 0 0 900 125;" xml:space="preserve">
<style type="text/css">
	.st0{fill:#FF008C;}
</style>
<g>
	<g>
		<path d="M141.28,63.01c3.23-1.87,6.89-2.81,10.97-2.81c3.63,0,6.94,0.62,9.95,1.87c3,1.25,5.53,3.12,7.57,5.61l14.62-14.62
			c-4.08-4.53-8.84-7.96-14.28-10.29c-5.44-2.32-11.39-3.49-17.85-3.49c-8.39,0-15.93,1.87-22.61,5.61
			c-6.69,3.74-11.96,8.87-15.81,15.39c-3.86,6.52-5.78,13.86-5.78,22.02c0,7.94,1.93,15.16,5.78,21.68
			c3.85,6.52,9.12,11.68,15.81,15.47c6.69,3.8,14.17,5.7,22.44,5.7c6.57,0,12.61-1.22,18.11-3.66c5.5-2.44,10.23-5.92,14.2-10.46
			L170.1,96.59c-2.27,2.49-4.87,4.39-7.82,5.7c-2.95,1.3-6.29,1.96-10.03,1.96c-4.08,0-7.74-0.96-10.97-2.89
			c-3.23-1.93-5.75-4.53-7.57-7.82c-1.81-3.29-2.72-7.08-2.72-11.39c0-4.31,0.91-8.1,2.72-11.39
			C135.53,67.46,138.05,64.88,141.28,63.01z"/>
		<path d="M256.05,44.9c-6.63-3.74-14.14-5.61-22.53-5.61c-8.28,0-15.73,1.9-22.36,5.7c-6.63,3.8-11.88,8.9-15.73,15.3
			c-3.86,6.41-5.78,13.63-5.78,21.68c0,8.16,1.93,15.5,5.78,22.02c3.85,6.52,9.1,11.68,15.73,15.47c6.63,3.8,14.08,5.7,22.36,5.7
			c8.39,0,15.92-1.9,22.61-5.7c6.69-3.8,11.96-8.98,15.81-15.56c3.85-6.57,5.78-13.88,5.78-21.93c0-8.05-1.96-15.3-5.87-21.76
			C267.95,53.74,262.68,48.64,256.05,44.9z M252.14,93.53c-1.76,3.29-4.25,5.9-7.48,7.82c-3.23,1.93-6.94,2.89-11.14,2.89
			c-4.08,0-7.71-0.96-10.88-2.89c-3.17-1.93-5.64-4.53-7.4-7.82c-1.76-3.29-2.64-7.08-2.64-11.39c0-4.31,0.88-8.1,2.64-11.39
			c1.76-3.29,4.22-5.87,7.4-7.74c3.17-1.87,6.8-2.81,10.88-2.81c4.19,0,7.85,0.94,10.97,2.81c3.12,1.87,5.61,4.45,7.48,7.74
			c1.87,3.29,2.81,7.09,2.81,11.39C254.78,86.45,253.9,90.24,252.14,93.53z"/>
		<path d="M349.64,48.29c-2.13-2.01-4.55-3.76-7.31-5.17c-4.76-2.44-10.09-3.66-15.98-3.66c-7.59,0-14.37,1.87-20.32,5.61
			c-5.95,3.74-10.69,8.84-14.2,15.3c-3.52,6.46-5.27,13.77-5.27,21.93c0,8.05,1.76,15.3,5.27,21.76c3.51,6.46,8.25,11.56,14.2,15.3
			c5.95,3.74,12.72,5.61,20.32,5.61c6.01,0,11.39-1.22,16.15-3.66c2.78-1.42,5.19-3.2,7.31-5.26v7.22h22.44V0.36h-22.61V48.29z
			 M348.54,93.7c-1.76,3.29-4.22,5.9-7.4,7.82c-3.17,1.93-6.8,2.89-10.88,2.89c-3.97,0-7.54-0.94-10.71-2.81
			c-3.17-1.87-5.64-4.48-7.4-7.82c-1.76-3.34-2.64-7.23-2.64-11.65c0-4.31,0.88-8.13,2.64-11.48c1.76-3.34,4.19-5.95,7.31-7.82
			c3.12-1.87,6.77-2.81,10.97-2.81c4.08,0,7.68,0.96,10.8,2.89c3.12,1.93,5.55,4.53,7.31,7.82c1.76,3.29,2.64,7.14,2.64,11.56
			C351.18,86.62,350.3,90.41,348.54,93.7z"/>
		<path d="M450.3,44.56c-6.12-3.51-13.04-5.27-20.74-5.27c-8.16,0-15.53,1.87-22.1,5.61c-6.57,3.74-11.76,8.84-15.56,15.3
			c-3.8,6.46-5.7,13.77-5.7,21.93c0,8.28,1.93,15.64,5.78,22.1c3.85,6.46,9.15,11.56,15.9,15.3c6.74,3.74,14.42,5.61,23.04,5.61
			c6.69,0,12.86-1.19,18.53-3.57c5.67-2.38,10.6-5.95,14.79-10.71l-13.26-13.26c-2.49,2.95-5.44,5.1-8.84,6.46
			c-3.4,1.36-7.2,2.04-11.39,2.04c-4.65,0-8.73-0.96-12.24-2.89c-3.51-1.93-6.21-4.73-8.08-8.42c-0.74-1.45-1.29-3.04-1.74-4.7
			l59.97-0.15c0.45-1.81,0.74-3.49,0.85-5.02c0.11-1.53,0.17-3.03,0.17-4.51c0-7.93-1.7-15.02-5.1-21.25
			C461.18,52.95,456.42,48.08,450.3,44.56z M417.82,60.88c3.29-1.93,7.14-2.89,11.56-2.89c4.19,0,7.71,0.85,10.54,2.55
			c2.83,1.7,5.04,4.2,6.63,7.48c0.76,1.58,1.34,3.35,1.77,5.3l-39.63,0.11c0.41-1.52,0.9-2.97,1.56-4.31
			C412.01,65.56,414.53,62.81,417.82,60.88z"/>
		<path d="M511.42,63.01c3.23-1.87,6.89-2.81,10.97-2.81c3.63,0,6.94,0.62,9.95,1.87c3,1.25,5.53,3.12,7.57,5.61l14.62-14.62
			c-4.08-4.53-8.84-7.96-14.28-10.29c-5.44-2.32-11.39-3.49-17.85-3.49c-8.39,0-15.93,1.87-22.61,5.61
			c-6.69,3.74-11.96,8.87-15.81,15.39c-3.86,6.52-5.78,13.86-5.78,22.02c0,7.94,1.93,15.16,5.78,21.68
			c3.85,6.52,9.12,11.68,15.81,15.47c6.69,3.8,14.17,5.7,22.44,5.7c6.57,0,12.61-1.22,18.11-3.66c5.5-2.44,10.23-5.92,14.2-10.46
			l-14.28-14.45c-2.27,2.49-4.87,4.39-7.82,5.7c-2.95,1.3-6.29,1.96-10.03,1.96c-4.08,0-7.74-0.96-10.97-2.89
			c-3.23-1.93-5.75-4.53-7.57-7.82c-1.81-3.29-2.72-7.08-2.72-11.39c0-4.31,0.91-8.1,2.72-11.39
			C505.66,67.46,508.19,64.88,511.42,63.01z"/>
		<path d="M626.18,44.9c-6.63-3.74-14.14-5.61-22.53-5.61c-8.27,0-15.73,1.9-22.36,5.7c-6.63,3.8-11.87,8.9-15.73,15.3
			c-3.86,6.41-5.78,13.63-5.78,21.68c0,8.16,1.93,15.5,5.78,22.02c3.85,6.52,9.1,11.68,15.73,15.47c6.63,3.8,14.08,5.7,22.36,5.7
			c8.39,0,15.92-1.9,22.61-5.7c6.69-3.8,11.96-8.98,15.81-15.56c3.85-6.57,5.78-13.88,5.78-21.93c0-8.05-1.96-15.3-5.87-21.76
			C638.09,53.74,632.81,48.64,626.18,44.9z M622.27,93.53c-1.76,3.29-4.25,5.9-7.48,7.82c-3.23,1.93-6.94,2.89-11.14,2.89
			c-4.08,0-7.71-0.96-10.88-2.89c-3.17-1.93-5.64-4.53-7.4-7.82c-1.76-3.29-2.63-7.08-2.63-11.39c0-4.31,0.88-8.1,2.63-11.39
			c1.76-3.29,4.22-5.87,7.4-7.74c3.17-1.87,6.8-2.81,10.88-2.81c4.19,0,7.85,0.94,10.97,2.81c3.12,1.87,5.61,4.45,7.48,7.74
			c1.87,3.29,2.81,7.09,2.81,11.39C624.91,86.45,624.03,90.24,622.27,93.53z"/>
		<path d="M716.29,41.42c-3.12-1.3-6.72-1.96-10.8-1.96c-9.18,0-16.21,2.92-21.08,8.76c-0.06,0.07-0.11,0.15-0.17,0.23v-7.28h-22.27
			v82.12h22.27V78.06c0-6.23,1.5-10.82,4.51-13.77c3-2.95,6.89-4.42,11.65-4.42c2.27,0,4.28,0.31,6.04,0.94
			c1.76,0.62,3.26,1.67,4.51,3.15l13.94-16.15C722.27,44.85,719.41,42.72,716.29,41.42z"/>
		<path d="M782.52,88.26c0,5.1-1.31,9.07-3.91,11.9c-2.61,2.83-6.24,4.25-10.88,4.25c-3.06,0-5.73-0.62-7.99-1.87
			c-2.27-1.25-3.97-3.09-5.1-5.53c-1.13-2.44-1.7-5.36-1.7-8.76v-47.1h-22.44v47.61c0,7.14,1.59,13.43,4.76,18.87
			c3.17,5.44,7.59,9.67,13.26,12.67c5.67,3,12.07,4.51,19.21,4.51c7.14,0,13.52-1.5,19.13-4.51c5.61-3,10-7.23,13.18-12.67
			c3.17-5.44,4.76-11.73,4.76-18.87V41.16h-22.27V88.26z"/>
		<path d="M895.92,55.7c-2.72-4.82-6.43-8.73-11.14-11.73c-4.71-3-10.12-4.51-16.24-4.51c-6.23,0-11.82,1.36-16.75,4.08
			c-2.68,1.48-5.01,3.29-7.06,5.39v-7.77h-22.27v82.12h22.27v-47.1c0-3.17,0.71-6.04,2.13-8.59c1.42-2.55,3.37-4.51,5.87-5.87
			c2.49-1.36,5.33-2.04,8.5-2.04c4.76,0,8.67,1.53,11.73,4.59c3.06,3.06,4.59,7.03,4.59,11.9v47.1H900v-52.2
			C900,65.64,898.64,60.52,895.92,55.7z"/>
	</g>
	<g>
		<polygon class="st0" points="79.68,12.61 46.61,125.21 72.28,125.21 105.34,12.61 		"/>
		<polygon class="st0" points="33.07,12.61 0,125.21 25.67,125.21 58.73,12.61 		"/>
	</g>
</g>
</svg>
